<?xml version="1.0" encoding="utf-8"?>
<svg viewBox="-240 -48 480 96" xmlns="http://www.w3.org/2000/svg">
  <path
    d="M -144 -48 L -144 -28 L -220 -28 L -220 28 L -144 28 L -144 36 L -156 48 L -240 48 L -240 -36 L -228 -48 Z"
    style="" />
  <path d="M -113 48 L -93 48 L -93 -28 L -29 -28 L -17 -40 L -17 -48 L -101 -48 L -113 -36 Z"
    style="" />
  <path d="M -89 10 L -41 10 L -29 -2 L -29 -10 L -89 -10 Z" style="" />
  <path d="M 88 48 L 65.992 19.829 L 78.992 3.19 L 114 48 L 88 48 Z" style="" />
  <path d="M 13 -48 L 39 -48 L 60.998 -19.842 L 47.998 -3.202 L 13 -48 Z" style="" />
  <path d="M 13 48 L 88 -48 L 114 -48 L 39 48 Z" style="" />
  <path
    d="M 144 48 L 144 40 L 156 28 L 220 28 L 220 10 L 156 10 L 144 -2 L 144 -36 L 156 -48 L 240 -48 L 240 -40 L 228 -28 L 164 -28 L 164 -10 L 228 -10 L 240 2 L 240 36 L 228 48 Z"
    style="" />
</svg>